HIERARCHY
ROOT Hips
{
	OFFSET -3.958830 18.904000 13.208200
	CHANNELS 6 Xposition Yposition Zposition Zrotation Yrotation Xrotation 
	JOINT LHipJoint
	{
		OFFSET 0.000000 0.000000 0.000000
		CHANNELS 3 Zrotation Yrotation Xrotation
		JOINT LeftUpLeg
		{
			OFFSET 1.800000 -1.400000 0.085000
			CHANNELS 3 Zrotation Yrotation Xrotation
			JOINT LeftLeg
			{
				OFFSET 2.215000 -6.000000 0.000000
				CHANNELS 3 Zrotation Yrotation Xrotation
				JOINT LeftFoot
				{
					OFFSET 2.500000 -6.900000 0.000000
					CHANNELS 3 Zrotation Yrotation Xrotation
					JOINT LeftToeBase
					{
						OFFSET 0.200000 -0.500000 1.950000
						CHANNELS 3 Zrotation Yrotation Xrotation
						End Site
						{
							OFFSET 0.000000 0.000000 0.000000
						}
					}
				}
			}
		}
	}
	JOINT RHipJoint
	{
		OFFSET 0.000000 0.000000 0.000000
		CHANNELS 3 Zrotation Yrotation Xrotation
		JOINT RightUpLeg
		{
			OFFSET -1.800000 -1.400000 0.085000
			CHANNELS 3 Zrotation Yrotation Xrotation
			JOINT RightLeg
			{
				OFFSET -2.215000 -6.000000 0.000000
				CHANNELS 3 Zrotation Yrotation Xrotation
				JOINT RightFoot
				{
					OFFSET -2.500000 -6.900000 0.000000
					CHANNELS 3 Zrotation Yrotation Xrotation
					JOINT RightToeBase
					{
						OFFSET -0.200000 -0.500000 1.950000
						CHANNELS 3 Zrotation Yrotation Xrotation
						End Site
						{
							OFFSET 0.000000 0.000000 0.000000
						}
					}
				}
			}
		}
	}
	JOINT LowerBack
	{
		OFFSET 0.000000 0.000000 0.000000
		CHANNELS 3 Zrotation Yrotation Xrotation
		JOINT Spine
		{
			OFFSET -0.087000 1.940000 -0.288900
			CHANNELS 3 Zrotation Yrotation Xrotation
			JOINT Spine1
			{
				OFFSET 0.000000 1.950000 0.060000
				CHANNELS 3 Zrotation Yrotation Xrotation
				JOINT Neck
				{
					OFFSET 0.000000 0.000000 0.000000
					CHANNELS 3 Zrotation Yrotation Xrotation
					JOINT Neck1
					{
						OFFSET 0.000000 1.600000 0.340000
						CHANNELS 3 Zrotation Yrotation Xrotation
						JOINT Head
						{
							OFFSET 0.000000 1.667000 -0.240000
							CHANNELS 3 Zrotation Yrotation Xrotation
							End Site
							{
								OFFSET 0.000000 0.000000 0.000000
							}
						}
					}
				}
				JOINT LeftShoulder
				{
					OFFSET 0.000000 0.000000 0.000000
					CHANNELS 3 Zrotation Yrotation Xrotation
					JOINT LeftArm
					{
						OFFSET 2.700000 1.550000 -0.730000
						CHANNELS 3 Zrotation Yrotation Xrotation
						JOINT LeftForeArm
						{
							OFFSET 5.450000 0.000000 0.000000
							CHANNELS 3 Zrotation Yrotation Xrotation
							JOINT LeftHand
							{
								OFFSET 3.450000 0.000000 0.000000
								CHANNELS 3 Zrotation Yrotation Xrotation
								JOINT LeftHandIndex1
								{
									OFFSET 0.750000 0.000000 0.000000
									CHANNELS 3 Zrotation Yrotation Xrotation
									End Site
									{
										OFFSET 0.000000 0.000000 0.000000
									}
								}
							}
						}
					}
				}
				JOINT RightShoulder
				{
					OFFSET 0.000000 0.000000 0.000000
					CHANNELS 3 Zrotation Yrotation Xrotation
					JOINT RightArm
					{
						OFFSET -2.700000 1.550000 -0.730000
						CHANNELS 3 Zrotation Yrotation Xrotation
						JOINT RightForeArm
						{
							OFFSET -5.450000 0.000000 0.000000
							CHANNELS 3 Zrotation Yrotation Xrotation
							JOINT RightHand
							{
								OFFSET -3.450000 0.000000 0.000000
								CHANNELS 3 Zrotation Yrotation Xrotation
								JOINT RightHandIndex1
								{
									OFFSET -0.750000 0.000000 0.000000
									CHANNELS 3 Zrotation Yrotation Xrotation
									End Site
									{
										OFFSET 0.000000 0.000000 0.000000
									}
								}
							}
						}
					}
				}
			}
		}
	}
}
MOTION
Frames: 11
Frame Time: 0.016667
-0.458840 16.318150 -1.279350 -0.545475 -45.217658 2.874117 -15.460306 11.643583 4.995065 15.942352 -4.853733 -44.488221 -6.402928 10.052922 33.759592 -0.318670 6.696001 1.865660 0.449390 0.501870 0.314900 18.247945 -9.202043 3.507825 -19.852595 7.918389 -34.764702 12.712389 -12.254176 42.823439 -0.721801 -7.077125 1.630286 0.447700 0.035430 0.118440 -3.586239 -2.207042 -8.823115 6.352640 0.506110 39.759302 -1.684503 2.806353 12.787702 -1.736801 -8.156560 -9.247363 -18.985146 8.487075 39.581759 -6.084400 3.761870 -15.225160 -3.276054 -37.608479 0.624422 13.102944 -35.052479 -11.897568 34.487939 -40.022743 -11.044354 -3.928209 2.842740 0.250320 0.068590 0.133330 0.065730 5.918061 46.357197 1.473482 -0.145275 41.089668 -12.159514 -47.162018 54.536127 -22.382843 2.009089 -0.971817 -0.102910 0.312440 -0.001290 -0.116410 
-0.372320 16.003260 -1.317970 -0.332665 -46.179107 2.416735 -15.724996 10.805430 5.630513 19.378390 -5.516600 -50.060731 -7.691762 13.216952 42.515873 0.004382 8.693404 1.152037 0.441960 0.476850 0.331480 18.242974 -8.186795 3.900142 -22.256959 9.420165 -40.478909 13.146039 -15.405023 51.871890 -1.135568 -8.771696 1.090850 0.402160 -0.038480 0.108170 -3.576088 -2.544425 -9.403943 5.258972 0.007385 46.678394 -1.701084 2.520634 9.507769 -1.718764 -9.512479 -10.372821 -23.152294 10.418253 39.890652 -6.669850 3.561570 -16.907860 -7.877232 -39.049163 0.339180 12.027046 -33.662194 -12.959038 29.132479 -42.784125 -9.540871 -3.853127 2.845190 0.329920 -0.011420 0.188130 0.033200 10.728186 48.428257 2.054238 1.499893 38.938116 -14.157276 -41.492876 65.290777 -22.879745 1.936264 -0.804057 -0.091270 0.300720 0.008560 -0.131210 
-0.306140 15.696860 -1.328330 -0.273609 -46.032423 2.532050 -15.962743 9.919210 6.238078 23.000377 -6.224546 -55.305077 -9.753487 16.628181 49.841004 0.394766 10.482349 0.562675 0.434660 0.460820 0.353560 18.244234 -7.204580 4.310029 -25.381799 10.126646 -45.882530 14.418975 -19.340440 59.538595 -1.581615 -10.467141 0.593341 0.353820 -0.113300 0.097390 -3.605128 -2.785188 -10.002434 4.115051 -0.966555 52.484845 -1.884966 1.471515 5.985606 -1.266687 -9.742050 -11.725698 -25.463725 12.253869 42.246466 -7.428260 3.896290 -17.347120 -11.936542 -40.965766 -0.088595 11.170189 -32.610495 -13.573892 21.177332 -43.295756 -6.401854 -3.779125 2.902512 0.385350 -0.081030 0.242780 0.005050 14.435409 49.811871 2.529975 4.400853 37.636549 -14.357498 -21.096490 68.872609 -12.220813 2.052609 -1.091487 -0.067300 0.276220 0.005250 -0.140830 
-0.257020 15.428840 -1.323350 -0.863707 -46.922717 3.098761 -16.149848 9.210380 6.681876 27.146598 -5.884917 -58.583817 -12.590287 20.135565 54.397846 0.746624 11.883849 0.140226 0.441330 0.463660 0.366560 18.235801 -6.461624 4.631233 -26.967889 11.044649 -50.495384 13.930715 -22.118981 66.711808 -1.972547 -11.821004 0.237576 0.326190 -0.162400 0.083730 -3.671705 -2.872990 -10.457001 3.143156 -1.403681 57.653024 -1.703897 1.023626 2.582066 -1.050284 -9.733210 -12.876464 -27.703701 14.822663 45.322333 -7.456640 4.286120 -17.062880 -16.321288 -42.136446 -0.628961 8.742939 -32.235684 -13.016709 10.986816 -40.665533 -2.370731 -3.682053 2.961665 0.428160 -0.138790 0.288670 0.002260 18.832977 50.238903 3.173705 7.940129 37.735715 -12.942292 -0.575416 69.031797 -0.036114 2.166249 -1.326845 -0.048530 0.272660 -0.006000 -0.139050 
-0.215230 15.231440 -1.313900 -0.973898 -47.473416 4.227615 -16.317300 8.565003 7.153114 31.115838 -5.460761 -61.947957 -16.227203 23.475152 56.984487 1.102786 12.946966 -0.132305 0.426790 0.441270 0.351390 18.216620 -5.846908 4.865447 -28.489283 11.565050 -54.510332 13.063342 -23.668775 71.339662 -2.203264 -12.616322 0.057504 0.277780 -0.188420 0.063150 -3.699790 -2.941474 -10.855494 1.978400 -1.370270 61.981607 -1.030249 0.869208 -0.482770 -0.743726 -9.230820 -14.910322 -29.494814 16.745347 49.568908 -6.579860 4.319810 -14.801950 -20.617383 -43.561482 -1.060089 3.935906 -31.705785 -12.204045 4.591301 -38.129562 -0.322639 -3.578196 3.013602 0.444840 -0.184920 0.312770 0.012690 23.185936 50.224998 5.070322 10.920984 35.255474 -13.005226 14.906962 65.153874 8.513067 2.210987 -1.496547 -0.026670 0.258180 -0.021460 -0.122170 
-0.185600 15.095930 -1.311490 -0.469249 -47.581113 5.054757 -16.384787 7.970390 7.448811 33.794981 -5.274440 -64.400044 -19.503394 25.836779 57.766882 1.350969 13.565945 -0.262281 0.422720 0.435370 0.328040 18.249246 -5.469012 5.126492 -31.084942 11.290697 -57.708252 14.176829 -25.771224 73.386388 -2.360841 -13.236530 -0.080632 0.259130 -0.177530 0.047420 -3.908528 -2.621603 -11.119542 1.875397 -1.876285 65.259570 -2.103733 0.472761 -2.185171 -0.532482 -8.539801 -15.935201 -30.982077 18.159250 54.202736 -5.179440 3.492410 -11.521040 -24.192524 -44.620168 -1.664681 -0.445710 -32.713543 -11.261773 1.790271 -33.367495 0.278145 -3.562748 2.989784 0.423290 -0.194490 0.304660 0.033320 26.507136 49.565481 6.209496 13.275965 34.005614 -12.705978 25.568435 60.671679 13.275452 2.202564 -1.630933 -0.009670 0.250870 -0.036070 -0.094800 
-0.150490 15.023140 -1.328270 -0.195639 -47.520974 7.277442 -16.486911 7.373186 7.844662 37.456239 -4.489705 -67.359965 -25.178074 28.031967 55.417563 1.556665 13.878200 -0.289571 0.391060 0.394700 0.296350 18.255619 -5.055468 5.337304 -32.819953 11.071176 -61.061366 14.965474 -26.740671 73.903528 -2.405920 -13.474740 -0.118641 0.221270 -0.153440 0.031220 -4.006203 -2.499410 -11.405663 0.782462 -1.772020 68.059847 -2.057852 0.033278 -3.922085 -0.459682 -7.903716 -17.256203 -30.886925 18.675819 57.662107 -3.853580 3.190450 -8.200720 -26.573223 -46.345499 -2.225708 -2.711290 -32.730062 -10.674628 -0.391312 -27.266665 0.583565 -3.584241 2.955191 0.395420 -0.190260 0.281790 0.045030 29.045416 49.929957 6.971655 14.679534 33.663054 -12.589473 24.909631 53.002413 11.303702 2.207343 -1.596353 -0.004110 0.237410 -0.040810 -0.074050 
-0.113760 14.981850 -1.325910 -0.298370 -47.975387 9.958345 -16.545369 6.951843 8.039823 39.627378 -3.614174 -69.313729 -28.392937 28.679006 53.221114 1.655521 13.874852 -0.237069 0.346140 0.343260 0.235910 18.269935 -4.760600 5.570030 -34.528413 11.041807 -64.137553 16.217310 -27.362146 73.289152 -2.402721 -13.539344 -0.109435 0.184750 -0.111640 0.015330 -4.134227 -2.381935 -11.605967 -0.112241 -1.732052 70.089294 -1.960434 -0.541109 -4.541261 -0.390344 -7.454473 -19.449268 -31.077455 19.581765 60.114019 -2.480510 2.889530 -4.701760 -28.341349 -48.441296 -1.904664 -4.315184 -31.546326 -10.341781 -1.662808 -21.271573 0.473652 -3.634928 2.898907 0.363000 -0.176050 0.247910 0.066460 30.958661 50.955413 7.575648 14.801303 33.642517 -12.985161 20.697687 46.696634 8.417135 2.228202 -1.521195 -0.007430 0.229220 -0.037060 -0.047000 
-0.070360 14.955050 -1.320230 -0.230708 -47.943455 12.204149 -16.587882 6.608456 8.198308 41.142300 -3.079928 -71.348177 -31.092090 28.756023 51.019605 1.730836 13.752220 -0.165905 0.326120 0.320410 0.195170 18.286069 -4.511202 5.779345 -36.769973 10.302950 -66.539824 18.261241 -28.249774 71.623924 -2.380044 -13.524468 -0.090796 0.160980 -0.103000 0.001590 -4.200611 -2.331602 -11.775822 -0.489156 -1.863057 71.649471 -1.913980 -1.035554 -4.359665 -0.112771 -7.201322 -20.993324 -31.389881 19.020472 62.422003 -1.661300 1.041240 -1.851220 -29.011007 -49.179236 -0.764079 -5.924376 -31.703011 -9.841406 -0.938666 -17.367442 0.048397 -3.714670 2.817520 0.321010 -0.175850 0.222170 0.083080 31.200748 51.537804 7.423124 13.912179 32.999577 -13.785183 18.123791 43.666805 7.005505 2.251334 -1.511508 0.011060 0.200060 -0.050200 -0.019870 
-0.036810 14.961440 -1.328940 -0.745411 -48.061077 15.309084 -16.612623 6.281172 8.281581 42.343854 -2.401992 -73.033749 -32.317763 28.177471 49.148644 1.735888 13.529082 -0.092090 0.324650 0.323480 0.184760 18.317905 -4.250096 6.054348 -39.120699 9.770094 -69.542999 21.128092 -29.198758 69.406741 -2.384289 -13.478483 -0.068207 0.145200 -0.105430 0.007420 -4.292280 -2.293362 -11.947680 -0.870016 -2.017755 72.986395 -2.251580 -1.567772 -3.990959 0.186585 -6.933517 -22.686226 -30.745818 18.615107 63.579762 -1.380480 0.704500 -0.757540 -29.238877 -50.215853 0.064139 -5.667256 -31.347413 -9.693333 -0.188796 -13.501168 -0.328881 -3.846666 2.706637 0.297880 -0.176960 0.223130 0.092230 30.870203 52.318550 7.340075 13.330567 33.545737 -14.138799 13.420718 38.779147 4.808213 2.310048 -1.405967 0.036490 0.175700 -0.062680 -0.001960 
0.003330 14.978090 -1.314380 -0.869764 -47.798448 18.066214 -16.622425 6.034190 8.380758 42.734912 -2.000117 -75.182075 -32.952804 27.540888 48.098585 1.726812 13.389576 -0.042862 0.328560 0.330350 0.180710 18.347659 -4.075382 6.239840 -41.983631 8.639737 -71.021735 25.077495 -30.067524 65.295369 -2.329416 -13.208032 0.005345 0.149400 -0.099960 0.011610 -4.329957 -2.272421 -12.054089 -0.095498 -2.651917 73.654586 -2.819076 -1.682303 -3.350148 0.688471 -6.826867 -23.389625 -30.568496 18.126693 64.233283 -1.594840 0.147920 -0.087760 -30.452422 -50.706208 1.541151 -7.070200 -33.119610 -8.983352 0.510504 -10.642292 -0.644727 -4.018005 2.619408 0.272000 -0.166260 0.213460 0.100410 31.035353 52.707725 6.477197 11.915435 33.089150 -13.859547 10.300024 33.608763 3.358464 2.407076 -1.316580 0.047140 0.165280 -0.070980 0.007920 
